<?xml version="1.0" standalone="yes"?>
<svg xmlns="http://www.w3.org/2000/svg" width="300" height="300">
<path style="fill:#99c35e; stroke:none;" d="M0 0L0 300L300 300L300 0L0 0z"/>
<path style="fill:#92846b; stroke:none;" d="M190 54L193 53L190 54z"/>
<path style="fill:#695836; stroke:none;" d="M195 52C186.398 55.0848 186.039 67.0793 186.001 75C185.89 97.9084 188.963 120.119 187.961 143C187.68 149.407 183.401 167.215 191.133 170.863C200.289 175.184 198.194 151.064 197.715 147C194.032 115.809 200.709 82.7509 195 52z"/>
<path style="fill:#92846b; stroke:none;" d="M195 52L195 55L196 55L195 52M103 53L103 61L104 61L103 53M189 55L190 56L189 55M110 56L109 84L110 84C112.299 76.2213 113.387 63.5451 110 56M115 56L115 61L116 61L115 56M107 57L108 79L109 79L107 57M188 57L189 58L188 57M187.333 60.6667L187.667 61.3333L187.333 60.6667z"/>
<path style="fill:#695836; stroke:none;" d="M103 61C102.386 68.7775 99.9277 77.2168 101.329 85C102.792 93.1193 107.004 99.321 107.83 108C109.017 120.473 106.957 134.671 104.92 147C104.02 152.447 99.1175 170.229 109.985 169.003C120.061 167.867 114.138 151.021 113.271 145C111.225 130.804 108.774 114.283 111.329 100C112.293 94.6116 116.348 90.5008 116.895 85C117.696 76.9524 116.022 69.0142 116 61L115 61L115 83L112 83L112 70L111 70L110 84L109 84L108 67L107 67C107 72.5851 107.866 78.5542 104 83L103 61z"/>
<path style="fill:#d0deb2; stroke:none;" d="M131 64L131 65L145 62L131 64z"/>
<path style="fill:#f4f1e5; stroke:none;" d="M145 61.5139C137.163 63.0918 124.949 65.0099 119.407 71.3904C115.945 75.377 118.656 83.0544 116.867 88C110.596 105.337 110.81 123.451 113.424 142C114.165 147.255 114.001 155.141 116.988 159.671C124.805 171.524 148.818 172.464 161 169.996C168.881 168.399 181.818 164.544 185.972 156.907C189.363 150.672 186.509 139.938 187.17 133C188.508 118.941 186.047 105.976 185.09 92C184.739 86.8887 186.694 78.8608 183.972 74.3256C178.188 64.6894 155.244 59.4516 145 61.5139z"/>
<path style="fill:#d0deb2; stroke:none;" d="M155 61L155 62L163 63L155 61z"/>
<path style="fill:#92846b; stroke:none;" d="M102 62L102 66L103 66L102 62z"/>
<path style="fill:#d0deb2; stroke:none;" d="M163 63L163 64L166 64L163 63M167.667 64.3333L168.333 64.6667L167.667 64.3333z"/>
<path style="fill:#92846b; stroke:none;" d="M186 64L186 68L187 68L186 64z"/>
<path style="fill:#d0deb2; stroke:none;" d="M128.667 65.3333L129.333 65.6667L128.667 65.3333M169 65L169 66L172 66L169 65z"/>
<path style="fill:#92846b; stroke:none;" d="M116 66L116 70L117 70L116 66z"/>
<path style="fill:#d0deb2; stroke:none;" d="M126.667 66.3333L127.333 66.6667L126.667 66.3333M172.667 66.3333L173.333 66.6667L172.667 66.3333M124.667 67.3333L125.333 67.6667L124.667 67.3333M174.667 67.3333L175.333 67.6667L174.667 67.3333M122.667 68.3333L123.333 68.6667L122.667 68.3333M176.667 68.3333L177.333 68.6667L176.667 68.3333M120.667 69.3333L121.333 69.6667L120.667 69.3333M178 69L179 70L178 69M119 70L120 71L119 70M179.667 70.3333L180.333 70.6667L179.667 70.3333z"/>
<path style="fill:#92846b; stroke:none;" d="M101 71L101 75L102 75L101 71z"/>
<path style="fill:#d0deb2; stroke:none;" d="M118 71L119 72L118 71M181 71L182 72L181 71M117 72L118 73L117 72M182.667 72.3333L183.333 72.6667L182.667 72.3333M184 73L185 74L184 73M117 74L117 78L118 78L117 74M185 74L185 96L186 96L185 74z"/>
<path style="fill:#92846b; stroke:none;" d="M106 75L106 80L107 80L106 75z"/>
<path style="fill:#d0deb2; stroke:none;" d="M113 75L112 79L113 79L113 76L114 76L113 83L114 83L115 75L113 75z"/>
<path style="fill:#f4f1e5; stroke:none;" d="M113 76L113 82L114 82L113 76z"/>
<path style="fill:#92846b; stroke:none;" d="M196 77L196 108L197 108L196 77z"/>
<path style="fill:#99c35e; stroke:none;" d="M117 78L117 81L118 81L117 78M108.333 79.6667L108.667 80.3333L108.333 79.6667z"/>
<path style="fill:#d0deb2; stroke:none;" d="M109 79L110 80L109 79z"/>
<path style="fill:#99c35e; stroke:none;" d="M112.333 79.6667L112.667 80.3333L112.333 79.6667z"/>
<path style="fill:#f4f1e5; stroke:none;" d="M109.333 80.6667L109.667 81.3333L109.333 80.6667z"/>
<path style="fill:#d0deb2; stroke:none;" d="M108 81L110 83L108 81z"/>
<path style="fill:#92846b; stroke:none;" d="M112.333 81.6667L112.667 82.3333L112.333 81.6667M117 81L118 82L117 81M104.667 82.3333L105.333 82.6667L104.667 82.3333z"/>
<path style="fill:#99c35e; stroke:none;" d="M108 82L109 83L108 82M114 82L115 83L114 82M117 82L117 85L118 85L117 82z"/>
<path style="fill:#d0deb2; stroke:none;" d="M117.333 85.6667L117.667 86.3333L117.333 85.6667z"/>
<path style="fill:#92846b; stroke:none;" d="M101.333 86.6667L101.667 87.3333L101.333 86.6667M116 88L117 89L116 88z"/>
<path style="fill:#d0deb2; stroke:none;" d="M197 88L199 91L197 88z"/>
<path style="fill:#92846b; stroke:none;" d="M102 89L103 90L102 89z"/>
<path style="fill:#d0deb2; stroke:none;" d="M116 89L117 90L116 89M100 93L101 93L103 91L100 93z"/>
<path style="fill:#92846b; stroke:none;" d="M115 90L116 91L115 90z"/>
<path style="fill:#f4f1e5; stroke:none;" d="M197 90L198 142L199 142C204.186 126.671 210.431 103.406 197 90M101 91C95.5225 105.199 88.9124 135.462 105 146C105.145 128.515 112.148 107.028 103 91L101 91z"/>
<path style="fill:#92846b; stroke:none;" d="M103 91L106 94L103 91z"/>
<path style="fill:#d0deb2; stroke:none;" d="M115 91L116 92L115 91M103 92L104 93L103 92z"/>
<path style="fill:#99c35e; stroke:none;" d="M114 92L115 93L114 92z"/>
<path style="fill:#d0deb2; stroke:none;" d="M199 92L200 93L199 92M104 93L105 94L104 93z"/>
<path style="fill:#92846b; stroke:none;" d="M113 93L114 94L113 93z"/>
<path style="fill:#d0deb2; stroke:none;" d="M99 94L100 95L99 94z"/>
<path style="fill:#99c35e; stroke:none;" d="M105 94L106 95L105 94z"/>
<path style="fill:#d0deb2; stroke:none;" d="M113 94L114 95L113 94M152 139L159 130L153 135L150 114L149 114L148 124L149 124L149 122L150 122L149 127L150 127L150 125L151 125L150 132L151 132L151 128L152 128L151 137C136.568 124.145 135.406 100.132 157 95L155 106L156 106L160 94C135.761 94.5163 131.508 128.985 152 139M200 94L201 95L200 94z"/>
<path style="fill:#92846b; stroke:none;" d="M106 95L107 96L106 95M112 95L113 96L112 95z"/>
<path style="fill:#99c35e; stroke:none;" d="M151 137L149 114L150 114L153 135C167.528 124.453 152.674 108.869 157 95C136.647 98.0507 134.081 127.023 151 137z"/>
<path style="fill:#d0deb2; stroke:none;" d="M98.3333 96.6667L98.6667 97.3333L98.3333 96.6667M106.333 96.6667L106.667 97.3333L106.333 96.6667M112 96L113 97L112 96M201.333 96.6667L201.667 97.3333L201.333 96.6667z"/>
<path style="fill:#92846b; stroke:none;" d="M111 98L111 102L112 102L111 98z"/>
<path style="fill:#d0deb2; stroke:none;" d="M97.3333 99.6667L97.6667 100.333L97.3333 99.6667z"/>
<path style="fill:#92846b; stroke:none;" d="M186 99L186 104L187 104L186 99z"/>
<path style="fill:#d0deb2; stroke:none;" d="M202.333 99.6667L202.667 100.333L202.333 99.6667M96 102L96 105L97 105L96 102z"/>
<path style="fill:#99c35e; stroke:none;" d="M111 102L111 110L112 110L111 102z"/>
<path style="fill:#d0deb2; stroke:none;" d="M203 102L203 105L204 105L203 102z"/>
<path style="fill:#99c35e; stroke:none;" d="M186.333 104.667L186.667 105.333L186.333 104.667z"/>
<path style="fill:#92846b; stroke:none;" d="M107 105L107 120L108 120L107 105z"/>
<path style="fill:#d0deb2; stroke:none;" d="M95 106L95 111L96 111L95 106M186 106L187 107L186 106M156.333 107.667L156.667 108.333L156.333 107.667M204 107L204 110L205 110L204 107z"/>
<path style="fill:#92846b; stroke:none;" d="M187 108L187 111L188 111L187 108z"/>
<path style="fill:#99c35e; stroke:none;" d="M196 108L196 111L197 111L196 108z"/>
<path style="fill:#d0deb2; stroke:none;" d="M111 110L111 117L112 117L111 110M157.333 110.667L157.667 111.333L157.333 110.667M187.333 111.667L187.667 112.333L187.333 111.667M196 111L196 115L197 115L196 111M158.333 113.667L158.667 114.333L158.333 113.667z"/>
<path style="fill:#92846b; stroke:none;" d="M188 115L188 119L189 119L188 115z"/>
<path style="fill:#d0deb2; stroke:none;" d="M159.333 116.667L159.667 117.333L159.333 116.667z"/>
<path style="fill:#99c35e; stroke:none;" d="M111 117L111 122L112 122L111 117M188 119L189 120L188 119z"/>
<path style="fill:#d0deb2; stroke:none;" d="M160 120L160 126L161 126L160 120z"/>
<path style="fill:#92846b; stroke:none;" d="M188 120L188 126L189 126L188 120M195 120L195 123L196 123L195 120M111 122L111 132L112 132L111 122z"/>
<path style="fill:#f4f1e5; stroke:none;" d="M149 122L149 125L150 125L149 122z"/>
<path style="fill:#d0deb2; stroke:none;" d="M95 123L95 126L96 126L95 123M204 123L204 126L205 126L204 123z"/>
<path style="fill:#f4f1e5; stroke:none;" d="M150 125L150 128L151 128L150 125z"/>
<path style="fill:#d0deb2; stroke:none;" d="M159.333 127.667L159.667 128.333L159.333 127.667M196 127L196 131L197 131L196 127M106 128L106 132L107 132L106 128z"/>
<path style="fill:#f4f1e5; stroke:none;" d="M151 128L151 134L152 134L151 128z"/>
<path style="fill:#d0deb2; stroke:none;" d="M203 128L203 131L204 131L203 128M96.3333 129.667L96.6667 130.333L96.3333 129.667M187 130L187 135L188 135L187 130z"/>
<path style="fill:#99c35e; stroke:none;" d="M196.333 131.667L196.667 132.333L196.333 131.667z"/>
<path style="fill:#d0deb2; stroke:none;" d="M97.3333 132.667L97.6667 133.333L97.3333 132.667z"/>
<path style="fill:#99c35e; stroke:none;" d="M106.333 132.667L106.667 133.333L106.333 132.667z"/>
<path style="fill:#d0deb2; stroke:none;" d="M202.333 132.667L202.667 133.333L202.333 132.667z"/>
<path style="fill:#92846b; stroke:none;" d="M196 133L196 137L197 137L196 133M106.333 134.667L106.667 135.333L106.333 134.667z"/>
<path style="fill:#d0deb2; stroke:none;" d="M112.333 134.667L112.667 135.333L112.333 134.667M98.3333 135.667L98.6667 136.333L98.3333 135.667z"/>
<path style="fill:#99c35e; stroke:none;" d="M187.333 135.667L187.667 136.333L187.333 135.667z"/>
<path style="fill:#d0deb2; stroke:none;" d="M201.333 135.667L201.667 136.333L201.333 135.667z"/>
<path style="fill:#99c35e; stroke:none;" d="M112 136L113 137L112 136z"/>
<path style="fill:#92846b; stroke:none;" d="M112 137L112 140L113 140L112 137M187 137L187 148L188 148L187 137z"/>
<path style="fill:#d0deb2; stroke:none;" d="M200.333 137.667L200.667 138.333L200.333 137.667M99 138L100 139L99 138M105.333 138.667L105.667 139.333L105.333 138.667M100.333 140.667L100.667 141.333L100.333 140.667z"/>
<path style="fill:#99c35e; stroke:none;" d="M105.333 140.667L105.667 141.333L105.333 140.667z"/>
<path style="fill:#d0deb2; stroke:none;" d="M197.333 140.667L197.667 141.333L197.333 140.667M199 140L200 141L199 140M101 142L102 143L101 142z"/>
<path style="fill:#92846b; stroke:none;" d="M105.333 142.667L105.667 143.333L105.333 142.667z"/>
<path style="fill:#d0deb2; stroke:none;" d="M113.333 142.667L113.667 143.333L113.333 142.667M198 142L199 143L198 142M102 144L103 145L102 144z"/>
<path style="fill:#99c35e; stroke:none;" d="M113 144L114 145L113 144z"/>
<path style="fill:#92846b; stroke:none;" d="M197.333 144.667L197.667 145.333L197.333 144.667M113.333 145.667L113.667 146.333L113.333 145.667z"/>
<path style="fill:#d0deb2; stroke:none;" d="M103.667 146.333L104.333 146.667L103.667 146.333z"/>
<path style="fill:#92846b; stroke:none;" d="M104.333 148.667L104.667 149.333L104.333 148.667z"/>
<path style="fill:#d0deb2; stroke:none;" d="M114 149L115 150L114 149z"/>
<path style="fill:#99c35e; stroke:none;" d="M114 150L115 151L114 150z"/>
<path style="fill:#92846b; stroke:none;" d="M114 151L114 154L115 154L114 151M103 153L103 156L104 156L103 153z"/>
<path style="fill:#d0deb2; stroke:none;" d="M115.333 155.667L115.667 156.333L115.333 155.667z"/>
<path style="fill:#92846b; stroke:none;" d="M115.333 157.667L115.667 158.333L115.333 157.667z"/>
<path style="fill:#d0deb2; stroke:none;" d="M186 157L187 158L186 157M185 158L186 159L185 158z"/>
<path style="fill:#92846b; stroke:none;" d="M102 159L102 165L103 165L102 159z"/>
<path style="fill:#d0deb2; stroke:none;" d="M184 159L185 160L184 159M116 160L117 161L116 160M182.667 160.333L183.333 160.667L182.667 160.333M117.667 161.333L118.333 161.667L117.667 161.333M181 161L182 162L181 161M119 162L120 163L119 162M179.667 162.333L180.333 162.667L179.667 162.333M120.667 163.333L121.333 163.667L120.667 163.333M178 163L179 164L178 163M122.667 164.333L123.333 164.667L122.667 164.333M176.667 164.333L177.333 164.667L176.667 164.333z"/>
<path style="fill:#92846b; stroke:none;" d="M187 164L187 168L188 168L187 164M115 165L116 166L115 165z"/>
<path style="fill:#d0deb2; stroke:none;" d="M124.667 165.333L125.333 165.667L124.667 165.333M174.667 165.333L175.333 165.667L174.667 165.333z"/>
<path style="fill:#92846b; stroke:none;" d="M103 166L104 167L103 166z"/>
<path style="fill:#d0deb2; stroke:none;" d="M126.667 166.333L127.333 166.667L126.667 166.333M172.667 166.333L173.333 166.667L172.667 166.333z"/>
<path style="fill:#92846b; stroke:none;" d="M104 167L105 168L104 167M114 167L115 168L114 167z"/>
<path style="fill:#d0deb2; stroke:none;" d="M128.667 167.333L129.333 167.667L128.667 167.333M170.667 167.333L171.333 167.667L170.667 167.333z"/>
<path style="fill:#92846b; stroke:none;" d="M105 168L106 169L105 168M112.667 168.333L113.333 168.667L112.667 168.333z"/>
<path style="fill:#d0deb2; stroke:none;" d="M130 168L130 169L133 169L130 168M167.667 168.333L168.333 168.667L167.667 168.333z"/>
<path style="fill:#92846b; stroke:none;" d="M197 168L198 169L197 168M107.667 169.333L108.333 169.667L107.667 169.333M110.667 169.333L111.333 169.667L110.667 169.333z"/>
<path style="fill:#d0deb2; stroke:none;" d="M134 169L134 170L137 170L134 169M163 169L163 170L166 170L163 169z"/>
<path style="fill:#92846b; stroke:none;" d="M188 169L189 170L188 169M196 169L197 170L196 169z"/>
<path style="fill:#d0deb2; stroke:none;" d="M137 170L137 171L141 171L137 170M158 170L158 171L163 171L158 170z"/>
<path style="fill:#92846b; stroke:none;" d="M189 170L190 171L189 170M190 171L191 172L190 171M194.667 171.333L195.333 171.667L194.667 171.333z"/>
<path style="fill:#d0deb2; stroke:none;" d="M127 190L127 191C142.855 193.944 162.056 193.015 178 191L162 190.999L127 190z"/>
<path style="fill:#f4f1e5; stroke:none;" d="M140 190L140 191L170 191L140 190z"/>
<path style="fill:#d0deb2; stroke:none;" d="M109 192L109 193L120 193L109 192z"/>
<path style="fill:#f4f1e5; stroke:none;" d="M119 191L119 192L130 192L119 191M174 191L174 192L186 192L174 191z"/>
<path style="fill:#d0deb2; stroke:none;" d="M182 192L182 193L193 192L182 192M99 193L99 194L104 194L104 192L99 193z"/>
<path style="fill:#f4f1e5; stroke:none;" d="M104 192L104 193L109 193L104 192M192 192L192 193L199 193L192 192z"/>
<path style="fill:#d0deb2; stroke:none;" d="M197 193L197 194L206 194L197 193M90 194L90 195L94 193L90 194z"/>
<path style="fill:#f4f1e5; stroke:none;" d="M94 193L94 194L99 194L94 193M206 193L206 194L209 194L206 193z"/>
<path style="fill:#d0deb2; stroke:none;" d="M209 193L209 194L215 195L209 193M83 194L83 196L86 196L86 194L83 194z"/>
<path style="fill:#f4f1e5; stroke:none;" d="M86 194L86 195L90 195L86 194M215.667 194.333L216.333 194.667L215.667 194.333z"/>
<path style="fill:#d0deb2; stroke:none;" d="M217 194L217 195L223 196L217 194M75 196L75 197L79 196L75 196z"/>
<path style="fill:#f4f1e5; stroke:none;" d="M79 195L79 196L83 196L79 195M223 195L223 196L226 196L223 195z"/>
<path style="fill:#d0deb2; stroke:none;" d="M226 195L226 196L230 197L230 196L226 195M69 197L69 198L73 197L69 197z"/>
<path style="fill:#f4f1e5; stroke:none;" d="M73.6667 196.333L74.3333 196.667L73.6667 196.333M230 196L230 197L233 197L230 196z"/>
<path style="fill:#d0deb2; stroke:none;" d="M233 196L240 198L240 197L233 196M65.6667 197.333L66.3333 197.667L65.6667 197.333z"/>
<path style="fill:#f4f1e5; stroke:none;" d="M67.6667 197.333L68.3333 197.667L67.6667 197.333z"/>
<path style="fill:#d0deb2; stroke:none;" d="M60 198L60 199L65 199L60 198M240 198L240 199L245 199L240 198M246 199L246 200L250 200L246 199M137 202L137 206L140 203L141 203L141 210L142 210L141 202L137 202z"/>
<path style="fill:#f4f1e5; stroke:none;" d="M138 202L138 204L140 202L138 202M141 202L142 214L144 214L144 202L141 202z"/>
<path style="fill:#d0deb2; stroke:none;" d="M144 202L145 203L144 202z"/>
<path style="fill:#f4f1e5; stroke:none;" d="M145.667 202.333L146.333 202.667L145.667 202.333z"/>
<path style="fill:#d0deb2; stroke:none;" d="M147 202L146 206L147 202M149 202L150 203L149 202z"/>
<path style="fill:#f4f1e5; stroke:none;" d="M150 202C150 205.995 148.274 212.987 153 214L153 202L150 202z"/>
<path style="fill:#d0deb2; stroke:none;" d="M153 202L153 209L156 206L153 208L153 202z"/>
<path style="fill:#f4f1e5; stroke:none;" d="M154 202L154 203L154 208L154 209L158 214C157.336 209.366 158.885 203.968 154 202z"/>
<path style="fill:#d0deb2; stroke:none;" d="M156 202L157 203L156 202M165 202L157 214L157 215L167 211L167 210L164 207L166 208L166 207C165.017 204.05 164.513 203.378 167 204L165 202M120 203L121 208L122 208L121 204L125 204L120 203z"/>
<path style="fill:#f4f1e5; stroke:none;" d="M123 203L124 204L123 203M125 203L125 204C129.966 206.606 130.011 210.15 128 215C133.28 210.336 132.024 204.452 125 203z"/>
<path style="fill:#d0deb2; stroke:none;" d="M128 203L129 204L128 203M143 203L144 204L143 203z"/>
<path style="fill:#99c35e; stroke:none;" d="M153 203L153 208L155 203L153 203z"/>
<path style="fill:#d0deb2; stroke:none;" d="M155 203L156 204L155 203z"/>
<path style="fill:#f4f1e5; stroke:none;" d="M165 203L167 215L171 215L165 203z"/>
<path style="fill:#d0deb2; stroke:none;" d="M175 203L176 204L175 203z"/>
<path style="fill:#f4f1e5; stroke:none;" d="M176 203L177 204L176 203z"/>
<path style="fill:#d0deb2; stroke:none;" d="M177 203L177 204L181 204L177 203M111 204L110 206L109 205L110 208L111 208L113 204L111 204z"/>
<path style="fill:#f4f1e5; stroke:none;" d="M113 204L113 205C117.172 208.682 117.075 212.069 115 217C120.916 213.155 119.289 206.262 113 204z"/>
<path style="fill:#d0deb2; stroke:none;" d="M115 204L116 205L115 204z"/>
<path style="fill:#f4f1e5; stroke:none;" d="M121 204L122 216C126.566 215.001 124.582 205.59 121 204z"/>
<path style="fill:#99c35e; stroke:none;" d="M124 204L125 215C130.858 212.645 129.664 205.72 124 204z"/>
<path style="fill:#d0deb2; stroke:none;" d="M127 204L128 205L127 204M130 204L131 205L130 204M158.333 204.667L158.667 205.333L158.333 204.667z"/>
<path style="fill:#f4f1e5; stroke:none;" d="M174 204C172.024 208.131 172.024 210.87 174 215L175 215L176 204L174 204M180 204L182 206L182 204L180 204z"/>
<path style="fill:#d0deb2; stroke:none;" d="M182 204L181 208L182 204M185 204L186 205L185 204z"/>
<path style="fill:#f4f1e5; stroke:none;" d="M186 204C185.983 208.15 182.802 215.886 188 217L187 211L194 218L186 204z"/>
<path style="fill:#d0deb2; stroke:none;" d="M187 204L188 207L189 207L189 204L187 204z"/>
<path style="fill:#f4f1e5; stroke:none;" d="M110 205L111 206L110 205z"/>
<path style="fill:#99c35e; stroke:none;" d="M112 205C104.867 220.508 125.391 212.208 112 205z"/>
<path style="fill:#d0deb2; stroke:none;" d="M114 205L115 206L114 205M128 205L129 206L128 205M167.333 205.667L167.667 206.333L167.333 205.667M175 205L176 206L175 205M191 205L192 206L191 205z"/>
<path style="fill:#f4f1e5; stroke:none;" d="M192 205L192 207L194 205L192 205z"/>
<path style="fill:#d0deb2; stroke:none;" d="M194 205L195 206L194 205M95 208L95 209L102 207L95 208z"/>
<path style="fill:#f4f1e5; stroke:none;" d="M109 206C107.799 211.243 108.398 215.336 114 217L114 216L109 206z"/>
<path style="fill:#d0deb2; stroke:none;" d="M115 206L116 207L115 206M131 206L132 207L131 206M172 206L173 207L172 206M193 206L194 207L193 206M196 206L197 210L198 210L196 206z"/>
<path style="fill:#f4f1e5; stroke:none;" d="M197 206C197.489 210.492 194.817 216.208 199 219L197 206z"/>
<path style="fill:#d0deb2; stroke:none;" d="M199 206L202 208L199 206z"/>
<path style="fill:#f4f1e5; stroke:none;" d="M97 207L98 208L97 207z"/>
<path style="fill:#99c35e; stroke:none;" d="M99.2106 208.461C95.4921 209.782 97.568 218.599 101.617 217.248C105.371 215.996 102.911 207.147 99.2106 208.461z"/>
<path style="fill:#f4f1e5; stroke:none;" d="M101 207C103.281 211.546 103.987 214.208 102 219C106.723 215.063 106.633 209.956 101 207z"/>
<path style="fill:#d0deb2; stroke:none;" d="M103 207L104 208L103 207M108 207L109 208L108 207M118 207L119 208L118 207M129 207L129 213L130 213L129 207z"/>
<path style="fill:#99c35e; stroke:none;" d="M164 207L164 209L166 209L164 207z"/>
<path style="fill:#d0deb2; stroke:none;" d="M174 207L174 210L175 210L174 207M185 207L185 211L186 211L185 207M189 210L193 207L189 210z"/>
<path style="fill:#f4f1e5; stroke:none;" d="M202 207L202 208L204 210L205 210L202 207z"/>
<path style="fill:#d0deb2; stroke:none;" d="M205.333 207.667L205.667 208.333L205.333 207.667M91 208L91 212L91 208z"/>
<path style="fill:#f4f1e5; stroke:none;" d="M96 208C94.5494 212.967 95.1853 216.572 100 219L96 208z"/>
<path style="fill:#d0deb2; stroke:none;" d="M104 208L105 209L104 208M116.333 208.667L116.667 209.333L116.333 208.667M156 208L157 209L156 208M168.333 208.667L168.667 209.333L168.333 208.667M203 208L204 209L203 208M207 208L208 211L209 211L209 208L207 208M87 209L87 211L89 209L87 209z"/>
<path style="fill:#f4f1e5; stroke:none;" d="M89 209L89 210L92 211L89 209z"/>
<path style="fill:#d0deb2; stroke:none;" d="M102 209L103 210L102 209M105.333 209.667L105.667 210.333L105.333 209.667M107.333 209.667L107.667 210.333L107.333 209.667M119 209L119 213L120 213L119 209M124 209L124 214L125 214L124 209M152 209L152 213L153 213L152 209M157.333 209.667L157.667 210.333L157.333 209.667M199 209L202 216L201 212L203 213L203 212L203 211L199 209z"/>
<path style="fill:#f4f1e5; stroke:none;" d="M209 209L206 221L209 220L212 216L215 223L213 210C212.866 213.251 212.102 214.052 209 215L212 210L209 209z"/>
<path style="fill:#d0deb2; stroke:none;" d="M212 209L213 210L212 209M84.3333 210.667L84.6667 211.333L84.3333 210.667z"/>
<path style="fill:#f4f1e5; stroke:none;" d="M85 210C85.6361 214.724 85.9912 220.354 91 222L91 221L87 210L85 210z"/>
<path style="fill:#d0deb2; stroke:none;" d="M94 210L94 215L95 215L94 210M155 210L155 213L156 213L155 210M204 210L205 211L204 210M210.333 210.667L210.667 211.333L210.333 210.667z"/>
<path style="fill:#99c35e; stroke:none;" d="M211 210L210 215C213.054 214.346 212.936 212.993 213 210L211 210z"/>
<path style="fill:#d0deb2; stroke:none;" d="M96 211L97 212L96 211M103.333 211.667L103.667 212.333L103.333 211.667M110.333 211.667L110.667 212.333L110.333 211.667M131.333 211.667L131.667 212.333L131.333 211.667M169.333 211.667L169.667 212.333L169.333 211.667M174.333 211.667L174.667 212.333L174.333 211.667M187 211L187 214L189 211L187 211M190 211L191 212L190 211M213 211L213 214L214 214L213 211M215 211L216 212L215 211M87.3333 212.667L87.6667 213.333L87.3333 212.667M122 212L122 215L123 215L122 212M172.333 212.667L172.667 213.333L172.333 212.667z"/>
<path style="fill:#f4f1e5; stroke:none;" d="M181 212L180 215L181 212z"/>
<path style="fill:#d0deb2; stroke:none;" d="M196 212L196 215L197 215L196 212z"/>
<path style="fill:#f4f1e5; stroke:none;" d="M201.333 212.667L201.667 213.333L201.333 212.667z"/>
<path style="fill:#d0deb2; stroke:none;" d="M59 213L59 217L60 217L60 214L68 221C68.101 216.246 63.1724 213.842 59 213M85.3333 213.667L85.6667 214.333L85.3333 213.667M90 213L91 218L92 218L90 213M108 213L109 214L108 213M130 213L131 214L130 213M140 214L140 215L146 213L140 214M149 213L154 215L154 214L149 213z"/>
<path style="fill:#f4f1e5; stroke:none;" d="M159 213L160 214L159 213M161 213L160 215L162 215L161 213z"/>
<path style="fill:#d0deb2; stroke:none;" d="M167 213L168 214L167 213M180 213L181 214L180 213M189.333 213.667L189.667 214.333L189.333 213.667M191 213L192 214L191 213M207.333 213.667L207.667 214.333L207.333 213.667M233 217L240 214L233 217z"/>
<path style="fill:#f4f1e5; stroke:none;" d="M60 214C59.4535 216.89 58.4171 220.101 59.5 223C60.7376 226.314 64.11 228.132 65 224L66 224L66 227C70.602 221.118 66.092 216.077 60 214M90 214L89 216L91 216L90 214z"/>
<path style="fill:#d0deb2; stroke:none;" d="M97.3333 214.667L97.6667 215.333L97.3333 214.667M111 214L112 215L111 214M116 214L117 215L116 214M118 214L119 215L118 214M127 214L128 215L127 214M129 214L130 215L129 214M162.667 214.333L163.333 214.667L162.667 214.333M166 214L167 215L166 214M173 214L174 215L173 214M175.333 214.667L175.667 215.333L175.333 214.667M179 214L182 216L182 215L179 214M198 214L198 218L199 218L198 214M209 214L210 215L209 214M215 214L216 215L215 214z"/>
<path style="fill:#f4f1e5; stroke:none;" d="M232 227L233 227L233 224L234 224L234 227C240.65 225.025 239.725 219.766 239 214C232.103 216.21 229.632 220.098 232 227z"/>
<path style="fill:#d0deb2; stroke:none;" d="M88 215L88 218L89 218L88 215M109 215L110 216L109 215M121 215L122 216L121 215M125.667 215.333L126.333 215.667L125.667 215.333z"/>
<path style="fill:#f4f1e5; stroke:none;" d="M176 215L176 216L179 216L176 215z"/>
<path style="fill:#d0deb2; stroke:none;" d="M184 215L183 217L185 217L184 215M190 215L193 218L193 217L190 215M192 215L193 216L192 215M214 215L215 216L214 215M95 216L96 217L95 216M103 216L104 217L103 216M105 216L106 217L105 216M110 216L111 217L110 216M114 216L115 217L114 216M116 216L117 217L116 216M193 216L194 217L193 216M203.667 216.333L204.333 216.667L203.667 216.333M209 216L210 217L209 216M211.333 216.667L211.667 217.333L211.333 216.667M213 216L214 217L213 216M239.333 216.667L239.667 217.333L239.333 216.667M86.3333 217.667L86.6667 218.333L86.3333 217.667M96 217L97 218L96 217M104 217L105 218L104 217M194 217L197 219L194 217z"/>
<path style="fill:#f4f1e5; stroke:none;" d="M203 217L202 220L203 217z"/>
<path style="fill:#d0deb2; stroke:none;" d="M206 217L206 220L207 220L206 217M97 218L98 219L97 218M99 220L102 218L99 220M103 218L104 219L103 218M199 218L199 219L202 220L199 218M89.3333 219.667L89.6667 220.333L89.3333 219.667M203 219L204 220L203 219M208 219L209 220L208 219M230.333 219.667L230.667 220.333L230.333 219.667M205 220L206 221L205 220M211 220L212 221L211 220M87 221L86 223L88 223L87 221M91 221L92 222L91 221M208.667 221.333L209.333 221.667L208.667 221.333M214 221L216 223L216 221L214 221M212 222L213 223L212 222M59.3333 223.667L59.6667 224.333L59.3333 223.667M68.3333 223.667L68.6667 224.333L68.3333 223.667M230.333 223.667L230.667 224.333L230.333 223.667M239 223L240 224L239 223M65 224L65 227L66 227L65 224M233 224L233 227L234 227L233 224M60 225L61 226L60 225M67 225L68 226L67 225M231 225L232 226L231 225M238 225L239 226L238 225M61 226L62 227L61 226M237 226L238 227L237 226M65 239L65 240L146 233.015L234 239C224.743 231.878 203.381 233.918 192 232.83C165.253 230.275 136.773 231.034 110 232.91C95.3628 233.936 79.0633 234.553 65 239M127 237L127 239C142.639 239 163.015 242.429 178 238L162 237.999L127 237z"/>
<path style="fill:#f4f1e5; stroke:none;" d="M140 237L140 238L170 238L140 237z"/>
<path style="fill:#d0deb2; stroke:none;" d="M66 244L66 245L126 240L108 238.83L66 244z"/>
<path style="fill:#f4f1e5; stroke:none;" d="M123 238L123 239L127 239L123 238M177 238L177 239L181 239L177 238z"/>
<path style="fill:#d0deb2; stroke:none;" d="M178 239L178 240L239 245C233.583 242.397 226.894 242.406 221 241.576C207.276 239.641 191.713 236.454 178 239M235 238L239 240L235 238z"/>
<path style="fill:#f4f1e5; stroke:none;" d="M194 239L195 240L194 239z"/>
<path style="fill:#d0deb2; stroke:none;" d="M241 241L244 239L241 241M61 240L61 241L64 241L61 240M247 241L248 242L247 241M60 245L60 246L65 246L60 245M241 245L241 246L245 246L241 245M246 246L246 247L249 247L246 246z"/>
</svg>
